<?xml version="1.0" encoding="utf-8"?>
<!-- Generator: Adobe Illustrator 23.0.2, SVG Export Plug-In . SVG Version: 6.00 Build 0)  -->
<svg version="1.1" id="Layer_1" xmlns="http://www.w3.org/2000/svg" xmlns:xlink="http://www.w3.org/1999/xlink" x="0px" y="0px"
	 viewBox="0 0 16 16" style="enable-background:new 0 0 16 16;" xml:space="preserve">
<style type="text/css">
	.st0{fill:#C40B0B;}
</style>
<path class="st0" d="M15.3,4.8c-0.3-0.7-0.7-1.3-1.2-1.9c-0.7-0.9-1.6-1.6-2.6-2.1c-1-0.5-2.1-0.8-3.2-0.8C7.2,0,6.1,0.2,5,0.6
	C4,1,3,1.6,2.2,2.4S0.9,4.2,0.5,5.3C0.1,6.3-0.1,7.5,0,8.6c0.1,1.1,0.4,2.2,0.9,3.2c0.5,1,1.3,1.9,2.2,2.5c0.6,0.4,1.2,0.8,1.9,1.1
	C6,15.8,7,16,8,16c2.1,0,4.1-0.8,5.6-2.3S16,10.1,16,8C16,6.9,15.8,5.8,15.3,4.8z M8,1.6c0.9,0,1.8,0.2,2.7,0.6
	c-0.2,0.1-0.4,0.1-0.6,0.2c-0.7,0.1-1.4,0.4-1.9,1c-0.5,0.5-0.9,1.2-1,1.9C7.1,5.7,7,6,6.7,6.3C6.4,6.6,6,6.8,5.6,6.8
	c-0.7,0.1-1.4,0.4-1.9,1C3.2,8.3,2.8,9,2.7,9.7c0,0.4-0.2,0.7-0.5,1c-0.5-1-0.7-2-0.6-3.1c0.1-1.1,0.4-2.1,1-3
	C3.2,3.7,4,2.9,4.9,2.4C5.9,1.9,6.9,1.6,8,1.6L8,1.6z M3.1,12.1c0.1-0.1,0.1-0.1,0.2-0.2c0.5-0.5,0.9-1.2,1-1.9
	c0-0.4,0.2-0.8,0.5-1.1c0.3-0.3,0.7-0.5,1.1-0.5c0.7-0.1,1.4-0.4,1.9-1s0.9-1.2,1-1.9c0-0.4,0.2-0.8,0.5-1.1C9.5,4.2,9.9,4,10.3,4
	c0.7-0.1,1.3-0.4,1.8-0.8c0.6,0.5,1,1,1.4,1.6c0,0,0,0.1-0.1,0.1c-0.3,0.3-0.7,0.5-1.1,0.5c-0.7,0.1-1.4,0.4-1.9,1
	c-0.5,0.5-0.9,1.2-1,1.9C9.5,8.6,9.3,9,9,9.3C8.7,9.6,8.3,9.8,7.9,9.8c-0.7,0.1-1.4,0.4-1.9,1c-0.5,0.5-0.9,1.2-1,1.9
	c0,0.3-0.1,0.6-0.3,0.8C4.1,13.1,3.6,12.7,3.1,12.1z M8,14.4c-0.6,0-1.2-0.1-1.8-0.2c0.2-0.4,0.3-0.8,0.4-1.2c0-0.4,0.2-0.8,0.5-1.1
	c0.3-0.3,0.7-0.5,1.1-0.5c0.7-0.1,1.4-0.4,1.9-1c0.5-0.5,0.9-1.2,1-1.9c0-0.4,0.2-0.8,0.5-1.1C11.9,7.2,12.2,7,12.7,7
	c0.5-0.1,1.1-0.3,1.5-0.6c0.2,0.9,0.3,1.9,0.1,2.9c-0.2,1-0.6,1.9-1.2,2.6c-0.6,0.8-1.4,1.4-2.2,1.8C9.9,14.2,9,14.4,8,14.4L8,14.4z
	"/>
</svg>
