<svg width="63" height="63" fill="none" xmlns="http://www.w3.org/2000/svg"><g clip-path="url(#clip0)"><path d="M49.213 29.432l.005-16.636L24.61.492 0 12.797v16.3a30.473 30.473 0 0013.59 25.396l11.02 7.343 8.49-5.654A16.72 16.72 0 1049.212 29.43zM24.609 59.474l-9.927-6.617a28.504 28.504 0 01-12.713-23.76V14.012l22.64-11.32 22.64 11.32v15.192c-.326-.02-.65-.05-.984-.05-.333 0-.658.03-.984.05V15.228L24.609 4.892 3.937 15.228v13.868a26.547 26.547 0 0011.837 22.12l8.835 5.887 6.44-4.29c.275.6.586 1.184.93 1.748l-7.37 4.913zm5.704-8.535l-5.704 3.8-7.742-5.16a24.671 24.671 0 01-1.117-.797v-8.798h-1.97v7.146a24.588 24.588 0 01-2.953-3.278v-5.72c0-1.354.92-2.534 2.234-2.864l6.675-1.673a4.916 4.916 0 003.888 4.321v4.036h1.968v-4.036a4.914 4.914 0 003.887-4.321l4.382 1.1a16.649 16.649 0 00-3.55 16.243zM19.687 21.28h2.721c1.52-.002 3.02-.338 4.395-.984h.267l2.461 3.28v4.103l-3.28 2.46h-3.283l-3.28-2.46V21.28zM17.8 19.312a3.851 3.851 0 012.109-2.845 9.94 9.94 0 016.912-.435l.226.326h1.5c.543 0 .984.441.984.985v2.953l-1.476-1.969h-1.71l-.207.104a8.393 8.393 0 01-3.73.88H17.8zm9.762 12.304v1.477a2.953 2.953 0 01-5.906 0v-1.477l.657.492h4.593l.656-.492zm1.969-.038V30.14l1.969-1.477v-11.32a2.953 2.953 0 00-2.953-2.953h-.655c-1.424-.866-4.97-1.04-7.481-.256a6.126 6.126 0 00-4.661 6.162v.984h1.968v7.383l1.97 1.477v1.433l-7.106 1.787a4.913 4.913 0 00-3.723 4.772v2.658a24.583 24.583 0 01-2.953-11.694V16.445l18.703-9.352 18.703 9.352v12.651c0 .113-.006.226-.007.338a16.656 16.656 0 00-7.789 3.648l-5.985-1.504zm16.734 29.077c-8.154 0-14.765-6.61-14.765-14.765 0-8.156 6.61-14.766 14.765-14.766 8.155 0 14.766 6.61 14.766 14.766-.01 8.15-6.615 14.756-14.766 14.765z" fill="#02133C"/><path d="M51.187 17.343H63v1.969H51.187v-1.97zm0 3.937h7.875v1.97h-7.875v-1.97zm0 3.938h3.938v1.969h-3.938v-1.97z" fill="#E30B0B"/><circle cx="45.938" cy="45.938" r="17.063" fill="#C40B0B"/><path d="M43.87 46.224l-3.668-3.319-3.452 3.138 7.12 6.457 11.255-12.612-3.452-3.138-7.803 9.474z" fill="#fff"/></g><defs><clipPath id="clip0"><path fill="#fff" d="M0 0h63v63H0z"/></clipPath></defs></svg>