<svg width="63" height="63" fill="none" xmlns="http://www.w3.org/2000/svg"><g clip-path="url(#clip0)"><path d="M53.701 28.369l-2.299-7.077-13.15 4.273a2.316 2.316 0 01-3.032-2.203V9.536h-7.44v13.826a2.316 2.316 0 01-3.033 2.203l-13.149-4.273-2.3 7.076 13.15 4.273a2.316 2.316 0 011.158 3.565L15.48 47.392l6.02 4.373 8.127-11.186a2.316 2.316 0 013.748 0l8.127 11.186 6.02-4.373-8.128-11.186a2.317 2.317 0 011.159-3.565l13.15-4.272z" fill="#C40B0B"/><path d="M34.974 31.5a3.473 3.473 0 11-6.947 0 3.473 3.473 0 016.947 0z" fill="#02133C"/><path d="M59.615 17.28a31.784 31.784 0 00-9.051-10.858.922.922 0 00-1.118 1.468 29.932 29.932 0 018.523 10.225c2.113 4.17 3.185 8.675 3.185 13.385 0 7.921-3.084 15.368-8.685 20.969-5.601 5.601-13.048 8.685-20.969 8.685-7.921 0-15.368-3.084-20.969-8.685C4.93 46.868 1.846 39.42 1.846 31.5c0-7.921 3.084-15.368 8.685-20.969C16.132 4.93 23.58 1.846 31.5 1.846c5.3 0 10.502 1.415 15.041 4.092a.923.923 0 10.938-1.59A31.469 31.469 0 0031.5 0C23.086 0 15.176 3.277 9.226 9.226 3.276 15.176 0 23.086 0 31.5c0 8.414 3.277 16.324 9.226 22.274C15.176 59.724 23.086 63 31.5 63c8.414 0 16.324-3.277 22.274-9.226C59.724 47.824 63 39.914 63 31.5c0-5.003-1.139-9.787-3.385-14.22z" fill="#02133C"/><path d="M31.5 11.226c-11.18 0-20.274 9.095-20.274 20.274 0 11.18 9.094 20.275 20.274 20.275 11.18 0 20.274-9.095 20.274-20.275 0-11.18-9.095-20.274-20.274-20.274zm13.274 7.505l-3.748 4.963-3.059.993a1.38 1.38 0 01-1.25-.198 1.38 1.38 0 01-.574-1.127v-2.487l4.189-5.545a18.544 18.544 0 014.442 3.4zm1.238 1.423c.392.5.759 1.023 1.098 1.563l-3.02.981 1.922-2.544zm-9.869-6.49c.857.224 1.69.507 2.495.846l-2.495 3.303v-4.149zm-1.846-.38v10.078c0 1.05.487 2.004 1.336 2.62.564.411 1.305.822 2.905.46l9.492-3.083a18.264 18.264 0 011.685 5.335l-9.448 3.07a3.208 3.208 0 00-2.08 2.08 3.206 3.206 0 00.46 2.904l5.745 7.907a18.41 18.41 0 01-8.739 4.802l.076-4.067.778 1.072A.923.923 0 1038 45.377l-3.879-5.34a3.206 3.206 0 00-2.62-1.335c-1.05 0-2.005.486-2.622 1.335l-5.73 7.888a18.505 18.505 0 01-4.54-3.27l5.745-7.907a3.207 3.207 0 00.46-2.905 3.206 3.206 0 00-2.08-2.08l-9.449-3.07a18.29 18.29 0 011.686-5.334l8.217 2.67c.63.149 1.036-.203 1.163-.593a.923.923 0 00-.592-1.162l-1.488-.483-3.746-5.364a18.519 18.519 0 014.52-3.298l3.812 5.456v2.777c0 .418-.175.795-.493 1.064a.923.923 0 00-.11 1.3c.182.216.85.506 1.3.11.717-.63 1.149-1.517 1.149-2.474V13.284a18.512 18.512 0 015.594 0zm15.538 20.078l-4.126-1.426 4.196-1.363c.015.307-.008 2.176-.07 2.79zm-5.647 7.873l2.402.83c-.291.415-.599.818-.922 1.207l-1.48-2.037zm-1.894-2.607l-2.154-2.964a1.38 1.38 0 01-.198-1.25c.14-.43.466-.756.895-.895l1.96-.636 6.755 2.334a18.291 18.291 0 01-1.954 5.244l-5.304-1.833zm-15.875 7.935l-.049 2.639a18.333 18.333 0 01-1.5-.507l1.549-2.132zm-13.324-15.99l3.193 1.037-3.184.97c-.021-.358-.024-1.7-.01-2.007zm6.258 2.033l2.81.913c.429.14.755.466.895.895.14.43.067.885-.198 1.25l-1.607 2.212-6.219 1.893a18.271 18.271 0 01-1.726-5.322l6.045-1.84zm.1 7.747l-2.12 2.919c-.491-.59-.947-1.21-1.362-1.858l3.481-1.06zm-.094-17.509l-3.47-1.128c.415-.658.87-1.29 1.362-1.89l2.108 3.018zm7.498-5.482l-2.104-3.011c.683-.27 1.385-.5 2.104-.686v3.697zm1.351 32.272l.106-5.678 2.058-2.834a1.38 1.38 0 011.128-.575c.451 0 .862.21 1.128.575l1.3 1.79-.127 6.874a18.555 18.555 0 01-5.593-.152z" fill="#02133C"/><path d="M27.104 31.5a4.401 4.401 0 004.396 4.396 4.401 4.401 0 004.396-4.396 4.401 4.401 0 00-4.396-4.396 4.401 4.401 0 00-4.396 4.396zm6.947 0a2.553 2.553 0 01-2.55 2.55 2.553 2.553 0 01-2.551-2.55 2.553 2.553 0 012.55-2.55 2.553 2.553 0 012.55 2.55z" fill="#000"/></g><defs><clipPath id="clip0"><path fill="#fff" d="M0 0h63v63H0z"/></clipPath></defs></svg>