<svg width="63" height="63" fill="none" xmlns="http://www.w3.org/2000/svg"><path d="M20.323 34.548a3.052 3.052 0 01-3.049-3.048 3.052 3.052 0 013.049-3.048A3.052 3.052 0 0123.37 31.5a3.052 3.052 0 01-3.048 3.048zm22.354 0A3.052 3.052 0 0139.63 31.5a3.052 3.052 0 013.048-3.048 3.052 3.052 0 013.049 3.048 3.052 3.052 0 01-3.049 3.048z" fill="#C40B0B"/><path d="M60.968 56.903V0H54.87v3.627l-2.656-1.595h-41.43L8.13 3.627V0H2.032v56.903H0V63h10.161v-6.097H8.13V46.742h5.08a4.069 4.069 0 004.065 4.064 4.069 4.069 0 004.065-4.064v-4.065h20.32v4.065a4.069 4.069 0 004.065 4.064 4.069 4.069 0 004.064-4.064h5.081v10.161h-2.032V63H63v-6.097h-2.032zm-2.033-54.87v50.806h-2.032V2.032h2.032zM45.725 36.58v2.032h4.065a1.016 1.016 0 010 2.032H13.21a1.017 1.017 0 010-2.032h30.483V36.58H15.242V29.1c0-.482.343-.901.817-.996l4.264-.852V18.29c0-.56.455-1.016 1.016-1.016H41.66c.561 0 1.016.456 1.016 1.016v8.963l4.264.852c.474.095.817.514.817.997v7.479h-2.032zm1.615-10.469l-2.63-.526V18.29a3.052 3.052 0 00-3.049-3.048H21.34a3.052 3.052 0 00-3.049 3.048v7.296l-2.63.527a3.055 3.055 0 00-2.45 2.989v.366H8.129V10.736l4.346-2.607h38.049l4.347 2.607v18.732h-5.08v-.366a3.055 3.055 0 00-2.45-2.99zM11.35 4.066h40.3l3.221 1.932v2.37l-3.783-2.27H11.912L8.13 8.367v-2.37l3.22-1.932zM6.096 2.032V52.84H4.065V2.032h2.032zM4.065 56.903v-2.032h2.032v2.032H4.065zM8.129 44.71V31.5h5.08v5.08a3.052 3.052 0 00-3.048 3.049 3.052 3.052 0 003.049 3.048v2.033H8.129zm41.661 0v-2.033a3.052 3.052 0 003.049-3.048 3.052 3.052 0 00-3.049-3.048V31.5h5.081v13.21h-5.08zm7.113 10.161h2.032v2.032h-2.032v-2.032z" fill="#02133C"/><path d="M22.355 26.42h18.29v-7.114h-18.29v7.113zm15.242 6.096H25.403v2.032h12.194v-2.032zm0-4.064H25.403v2.032h12.194v-2.032z" fill="#02133C"/><path d="M58.936 48.774h-2.033v2.032h2.033v-2.032zm0-4.064h-2.033v2.032h2.033V44.71zM6.097 48.774H4.064v2.032h2.033v-2.032zm0-4.064H4.064v2.032h2.033V44.71z" fill="#C40B0B"/></svg>