<svg width="76" height="76" fill="none" xmlns="http://www.w3.org/2000/svg"><path d="M56.387 9.806H30.645V7.355h1.226c.678 0 1.226-.55 1.226-1.226V1.226C33.097.549 32.549 0 31.87 0H14.71c-.679 0-1.226.55-1.226 1.226v4.903c0 .676.547 1.226 1.226 1.226h1.225v3.291c-2.894 1.38-4.903 4.327-4.903 7.741V67.42c0 4.73 3.85 8.581 8.58 8.581h36.775c4.73 0 8.58-3.85 8.58-8.58V18.386c0-4.731-3.85-8.58-8.58-8.58zm6.13 8.581v19.105l-4.904-4.903V20.84a3.682 3.682 0 00-3.678-3.678h-11.75l-4.903-4.903h19.105c3.38 0 6.13 2.75 6.13 6.13zm-7.356 11.75L44.637 19.614h9.298c.677 0 1.226.55 1.226 1.226v9.299zM15.935 2.453h14.71v2.451h-14.71V2.452zm2.452 4.903h9.806v2.451h-8.58c-.417 0-.824.041-1.226.099v-2.55zm38 66.193H19.613c-3.38 0-6.13-2.75-6.13-6.129V18.387c0-3.38 2.75-6.129 6.13-6.129h14.202L62.516 40.96v26.46c0 3.38-2.75 6.13-6.129 6.13z" fill="#fff"/><path d="M32.737 15.069a1.22 1.22 0 00-.866-.36H20.839a4.908 4.908 0 00-4.904 4.904v46.58a4.908 4.908 0 004.903 4.904h34.323c2.704 0 4.903-2.2 4.903-4.904v-23.29a1.22 1.22 0 00-.359-.867L32.737 15.07zm24.876 51.124c0 1.352-1.1 2.452-2.452 2.452H20.84a2.454 2.454 0 01-2.452-2.452v-46.58c0-1.352 1.1-2.452 2.451-2.452h10.525l26.25 26.25v22.782z" fill="#fff"/><path d="M28.194 54.853c0 4.525 3.243 8.322 7.543 8.828a8.605 8.605 0 006.736-2.105 8.585 8.585 0 002.882-6.415v-.308c0-2.41-.61-4.8-1.763-6.914l-5.741-10.526c-.43-.788-1.724-.788-2.153 0l-5.742 10.525a14.482 14.482 0 00-1.762 6.915zm3.915-5.741l4.666-8.551 4.665 8.553a12.01 12.01 0 011.464 5.739v.308c0 1.75-.75 3.42-2.06 4.582-1.325 1.179-3.04 1.712-4.82 1.503-3.015-.355-5.379-3.164-5.379-6.393 0-2 .507-3.986 1.464-5.741z" fill="#fff"/><path d="M41.677 55.161h-2.452a2.454 2.454 0 01-2.451 2.452v2.451a4.908 4.908 0 004.903-4.903z" fill="#fff"/></svg>