<svg width="63" height="63" fill="none" xmlns="http://www.w3.org/2000/svg"><path d="M39.63 5.08H5.08v18.29h34.55V5.08z" fill="#C40B0B"/><path d="M58.935 41.764V31.5a3.052 3.052 0 00-3.048-3.048A3.052 3.052 0 0052.84 31.5v21.339h2.032v5.08a3.052 3.052 0 01-3.048 3.049H19.306a3.052 3.052 0 01-3.048-3.049V42.677h12.194v13.21a3.052 3.052 0 003.048 3.048h10.161a3.052 3.052 0 003.049-3.048V52.84h2.032v-8.96a3.044 3.044 0 012.032 2.862v6.097h2.032v-6.097a5.09 5.09 0 00-4.064-4.978V31.5c0-1.323-.853-2.44-2.032-2.861V0H0v42.677h14.226V57.92a5.086 5.086 0 005.08 5.081h32.517c2.801 0 5.08-2.28 5.08-5.08V52.84h2.032v-8.96a3.044 3.044 0 012.033 2.862v6.097H63v-6.097a5.09 5.09 0 00-4.065-4.978zM42.677 55.887c0 .561-.456 1.016-1.016 1.016H31.5c-.56 0-1.016-.455-1.016-1.016v-13.21h10.161V52.84h2.032v3.048zm1.017-25.403c.56 0 1.016.455 1.016 1.016v1.016h-2.033V31.5c0-.56.457-1.016 1.017-1.016zm-1.017 20.322V34.549h2.033v16.258h-2.033zM2.032 2.032h40.645V28.64a3.044 3.044 0 00-2.032 2.861v9.145H2.032V2.032zm53.855 28.452c.56 0 1.016.455 1.016 1.016v1.016h-2.032V31.5c0-.56.456-1.016 1.016-1.016zm-1.016 20.322V34.549h2.032v16.258h-2.032z" fill="#02133C"/><path d="M22.355 8.13c-10.708 0-14.008 7.413-14.144 7.728l1.866.804c.117-.265 2.958-6.5 12.278-6.5s12.161 6.235 12.276 6.496l1.867-.8c-.135-.315-3.435-7.729-14.143-7.729z" fill="#02133C"/><path d="M24.034 18.598a5.007 5.007 0 00-1.68-.308 5.086 5.086 0 00-5.08 5.08h2.032a3.052 3.052 0 013.049-3.047 3.052 3.052 0 013.048 3.048h2.033c0-1.479-.647-2.8-1.658-3.73l3.545-5.908-1.742-1.046-3.547 5.911zm-1.679 7.822a6.103 6.103 0 00-6.097 6.096 6.103 6.103 0 006.097 6.097 6.103 6.103 0 006.097-6.097 6.103 6.103 0 00-6.097-6.097zm0 10.16a4.069 4.069 0 01-4.065-4.064 4.069 4.069 0 014.065-4.064 4.069 4.069 0 014.064 4.064 4.069 4.069 0 01-4.064 4.065z" fill="#02133C"/><path d="M44.71 34.548h-2.032v2.033h2.032v-2.033zm12.193 0h-2.032v2.033h2.032v-2.033z" fill="#C40B0B"/></svg>