<svg width="72" height="61" fill="none" xmlns="http://www.w3.org/2000/svg"><path d="M43.143 30.138l.413-2.34 4.679.827-.413 2.34-4.68-.827zm16.748 18.525l1.217-.443-.812-2.232-1.212.442a7.122 7.122 0 00-.77-1.098l.831-.99-1.821-1.53-.832.994a7.065 7.065 0 00-1.212-.567l.224-1.275-2.338-.412-.224 1.273a7.168 7.168 0 00-1.336.118l-.44-1.212-2.232.811.44 1.211c-.195.11-.384.228-.57.357-.184.13-.336.29-.505.433l-1.01-.849-1.528 1.818.999.84c-.227.384-.416.79-.566 1.21l-1.288-.228-.413 2.34 1.276.224c-.002.447.038.893.119 1.333l-1.216.443.811 2.231 1.213-.441c.222.389.48.757.769 1.1l-.831.987 1.818 1.527.831-.992c.385.226.791.416 1.212.566l-.224 1.275 2.338.411.232-1.275c.021 0 .042.006.064.006a7.102 7.102 0 001.27-.127l.444 1.217 2.23-.811-.446-1.228c.193-.11.39-.213.575-.342.185-.13.336-.289.506-.432l1.012.849 1.526-1.82-1-.839c.227-.384.416-.788.565-1.208l1.284.227.413-2.34-1.276-.224a6.992 6.992 0 00-.117-1.328zm-7.006-3.468a4.723 4.723 0 110 9.446 4.723 4.723 0 010-9.446z" fill="#fff"/><path d="M51.538 50.909l.414-2.34 2.339.414-.413 2.339-2.34-.413z" fill="#fff"/><path d="M69.606 30.044a8.257 8.257 0 00-5.365-3.42l-4.053-.712-7.325-16.696a5.928 5.928 0 00-4.406-3.462L18.214.42a5.946 5.946 0 00-6.878 4.815l-5.154 29.24a3.563 3.563 0 002.89 4.128l.981.172a1.188 1.188 0 001.195-.513 10.681 10.681 0 0119.282 3.4 1.186 1.186 0 00.95.89l4.213.744-3.156 7.362a1.19 1.19 0 000 .936l2.85 6.656h-5.324v2.375h14.25V58.25h-5.325l2.85-6.657a1.187 1.187 0 000-.936l-2.91-6.79 3.867.682a1.176 1.176 0 001.195-.513 10.68 10.68 0 0119.281 3.4 1.188 1.188 0 00.95.892l.982.173a3.562 3.562 0 004.127-2.89l1.65-9.356a8.256 8.256 0 00-1.374-6.212zm-34.18 19.894l1.762-4.11 1.762 4.11h-3.525zm3.524 2.375l-1.762 4.11-1.763-4.11h3.525zM50.686 10.17l6.69 15.244-15.358-2.708 2.68-15.2 3.346.594a3.552 3.552 0 012.642 2.07zm-37.01-4.52a3.561 3.561 0 014.127-2.89l24.56 4.33-2.682 15.204-28.069-4.95L13.675 5.65zm-3.301 18.712l1.17.206-.411 2.338-1.171-.206.412-2.338zm-.65 11.943l-.238-.042a1.196 1.196 0 01-.964-1.376l.206-1.17 2.984.526a12.976 12.976 0 00-1.989 2.062zm12.69-4.998a13.056 13.056 0 00-10.07 2.4l.302-1.71-3.51-.619.414-2.339 1.168.207a2.375 2.375 0 002.753-1.927l.41-2.338a2.374 2.374 0 00-1.924-2.752l-1.17-.207.412-2.338 28.068 4.95-2.887 16.372-3.751-.663a13.062 13.062 0 00-10.215-9.036zm32.745 5.774a13.053 13.053 0 00-12.69 4.998l-3.75-.661 2.886-16.372 22.22 3.918a5.898 5.898 0 013.833 2.442c.15.23.286.47.404.718l-3.481-.614a2.375 2.375 0 00-2.75 1.92l-.413 2.339a2.375 2.375 0 001.926 2.751l4.678.831-.412 2.339-3.508-.62-.301 1.71a13.043 13.043 0 00-8.642-5.7zm13.482-1.24l-.205 1.17-4.68-.831.414-2.339 4.559.804c.01.4-.019.801-.088 1.196zm-3.026 10.32l-.237-.043a12.89 12.89 0 00-1.16-2.613l2.985.526-.205 1.169a1.188 1.188 0 01-1.383.96z" fill="#fff"/><path d="M18.188 48.75H3.938a3.562 3.562 0 00-3.563 3.563v4.75a3.563 3.563 0 003.563 3.562h14.25a3.563 3.563 0 003.562-3.563v-4.75a3.563 3.563 0 00-3.563-3.562zm-2.447 6.075l-.855 3.425h-2.303l.819-3.274a1.188 1.188 0 00-.09-.82l-1.516-3.031h2.095l1.85 3.7zm-7.172-.668l-1.523-3.032h2.095l1.85 3.7-.855 3.425H7.833l.819-3.274c.07-.274.041-.565-.083-.82zM2.75 57.063v-4.75a1.188 1.188 0 011.188-1.188h.453l1.85 3.7-.855 3.425H3.937a1.187 1.187 0 01-1.187-1.188zm16.625 0a1.188 1.188 0 01-1.188 1.187h-.855l.82-3.274a1.188 1.188 0 00-.09-.82l-1.516-3.031h1.642a1.188 1.188 0 011.187 1.188v4.75zM8.688 41.625h2.374v4.75H8.688v-4.75zm4.783 4.49l1.19-4.749 2.303.577-1.19 4.75-2.303-.578zM2.81 41.902l2.303-.577 1.19 4.75L4 46.65l-1.19-4.749z" fill="#fff"/></svg>