<svg xmlns="http://www.w3.org/2000/svg" viewBox="0 0 16 16"><path d="M15.3 4.8c-.3-.7-.7-1.3-1.2-1.9-.7-.9-1.6-1.6-2.6-2.1S9.4 0 8.3 0 6.1.2 5 .6c-1 .4-2 1-2.8 1.8S.9 4.2.5 5.3c-.4 1-.6 2.2-.5 3.3.1 1.1.4 2.2.9 3.2s1.3 1.9 2.2 2.5c.6.4 1.2.8 1.9 1.1 1 .4 2 .6 3 .6 2.1 0 4.1-.8 5.6-2.3S16 10.1 16 8c0-1.1-.2-2.2-.7-3.2zM8 1.6c.9 0 1.8.2 2.7.6-.2.1-.4.1-.6.2-.7.1-1.4.4-1.9 1-.5.5-.9 1.2-1 1.9-.1.4-.2.7-.5 1-.3.3-.7.5-1.1.5-.7.1-1.4.4-1.9 1-.5.5-.9 1.2-1 1.9 0 .4-.2.7-.5 1-.5-1-.7-2-.6-3.1.1-1.1.4-2.1 1-3 .6-.9 1.4-1.7 2.3-2.2 1-.5 2-.8 3.1-.8zM3.1 12.1l.2-.2c.5-.5.9-1.2 1-1.9 0-.4.2-.8.5-1.1.3-.3.7-.5 1.1-.5.7-.1 1.4-.4 1.9-1s.9-1.2 1-1.9c0-.4.2-.8.5-1.1.2-.2.6-.4 1-.4.7-.1 1.3-.4 1.8-.8.6.5 1 1 1.4 1.6 0 0 0 .1-.1.1-.3.3-.7.5-1.1.5-.7.1-1.4.4-1.9 1-.5.5-.9 1.2-1 1.9.1.3-.1.7-.4 1-.3.3-.7.5-1.1.5-.7.1-1.4.4-1.9 1-.5.5-.9 1.2-1 1.9 0 .3-.1.6-.3.8-.6-.4-1.1-.8-1.6-1.4zM8 14.4c-.6 0-1.2-.1-1.8-.2.2-.4.3-.8.4-1.2 0-.4.2-.8.5-1.1.3-.3.7-.5 1.1-.5.7-.1 1.4-.4 1.9-1 .5-.5.9-1.2 1-1.9 0-.4.2-.8.5-1.1.3-.2.6-.4 1.1-.4.5-.1 1.1-.3 1.5-.6.2.9.3 1.9.1 2.9-.2 1-.6 1.9-1.2 2.6-.6.8-1.4 1.4-2.2 1.8-1 .5-1.9.7-2.9.7z" fill="#c40b0b"/></svg>