<svg width="63" height="63" fill="none" xmlns="http://www.w3.org/2000/svg"><g clip-path="url(#clip0)"><path d="M63 33.6v-4.2c0-.58-.47-1.05-1.05-1.05H48.825v-21c0-.58-.47-1.05-1.05-1.05H36.633a7.322 7.322 0 002.217-5.25C38.85.47 38.38 0 37.8 0a7.35 7.35 0 00-6.3 3.584A7.35 7.35 0 0025.2 0c-.58 0-1.05.47-1.05 1.05 0 1.978.799 3.871 2.216 5.25H15.225c-.58 0-1.05.47-1.05 1.05v21H1.05c-.58 0-1.05.47-1.05 1.05v4.2c0 .58.47 1.05 1.05 1.05h34.48l-6.3 2.1H13.65c-.279 0-.546.111-.742.308L8.4 41.566l-1.358-1.358a1.05 1.05 0 00-1.484 0l-5.25 5.25a1.05 1.05 0 000 1.485l15.75 15.75c.41.41 1.074.41 1.484 0l5.25-5.25a1.05 1.05 0 000-1.485l-.173-.173 6.067-4.335H49.35c.263 0 .516-.098.71-.276L61.477 40.71a4.687 4.687 0 00.704-6.105c.474-.102.814-.519.819-1.004zM36.615 2.235a5.27 5.27 0 01-3.93 3.93 5.27 5.27 0 013.93-3.93zm-6.3 3.93a5.27 5.27 0 01-3.93-3.93 5.27 5.27 0 013.93 3.93zM16.276 8.4h30.45v19.95h-30.45V8.4zM2.1 32.55v-2.1h58.8v2.1H2.1zm42.778 2.704a4.226 4.226 0 00-.389-.604h9.45l-7.088 6.3h-3.727a4.215 4.215 0 001.754-5.697zM16.8 60.466L2.535 46.2 6.3 42.435 20.565 56.7 16.8 60.465zm43.26-21.3L48.94 49.35H28.35a1.05 1.05 0 00-.61.195l-6.627 4.734L9.885 43.05l4.2-4.2H29.4c.113 0 .225-.018.332-.053l10.741-3.58a2.121 2.121 0 111.229 4.057l-6.143 1.676h-3.01v2.1h14.7c.258 0 .506-.094.698-.264l8.416-7.48a2.59 2.59 0 011.723-.656h.217a2.595 2.595 0 011.757 4.515z" fill="#02133C"/><path d="M63 33.6v-4.2c0-.58-.47-1.05-1.05-1.05H48.825v-21c0-.58-.47-1.05-1.05-1.05H36.633a7.322 7.322 0 002.217-5.25C38.85.47 38.38 0 37.8 0a7.35 7.35 0 00-6.3 3.584A7.35 7.35 0 0025.2 0c-.58 0-1.05.47-1.05 1.05 0 1.978.799 3.871 2.216 5.25H15.225c-.58 0-1.05.47-1.05 1.05v21H1.05c-.58 0-1.05.47-1.05 1.05v4.2c0 .58.47 1.05 1.05 1.05l61.13-.046c.475-.102.815-.519.82-1.004zM36.615 2.235a5.27 5.27 0 01-3.93 3.93 5.27 5.27 0 013.93-3.93zm-6.3 3.93a5.27 5.27 0 01-3.93-3.93 5.27 5.27 0 013.93 3.93zM16.276 8.4h30.45v19.95h-30.45V8.4zm37.799-4.2h-2.1v2.1h2.1V4.2z" fill="#C40B0B"/><path d="M56.175 2.1h-2.1v2.1h2.1V2.1zm2.1 2.1h-2.1v2.1h2.1V4.2zm-2.1 2.1h-2.1v2.1h2.1V6.3zM63 1.05h-2.1v2.1H63v-2.1zM54.6 12.6h-2.1v2.1h2.1v-2.1zM8.925 11.55h-2.1v2.1h2.1v-2.1zm0 4.2h-2.1v2.1h2.1v-2.1zm2.1-2.1h-2.1v2.1h2.1v-2.1zm-4.2 0h-2.1v2.1h2.1v-2.1zM2.1 6.3H0v2.1h2.1V6.3zm9.45-5.25h-2.1v2.1h2.1v-2.1zM31.5 28.875L21.252 16.154h20.495L31.5 28.875z" fill="#C40B0B"/><path d="M41.747 16.154H21.252l3.534-5.654h13.428l3.533 5.654z" fill="#E30B0B"/><path d="M36.147 16.154l2.066-5.654H24.785l2.066 5.654h9.296z" fill="#C40B0B"/><path d="M36.094 16.154L31.5 10.5l-4.594 5.654h9.188z" fill="#FE6F6F"/><path d="M26.85 16.154l4.65 12.721 4.648-12.721h-9.296z" fill="#CB465F"/></g><defs><clipPath id="clip0"><path fill="#fff" d="M0 0h63v63H0z"/></clipPath></defs></svg>