<svg width="63" height="63" fill="none" xmlns="http://www.w3.org/2000/svg"><path d="M41.983 16.343a6.094 6.094 0 014.965-4.087l1.564-3.662-5.38-5.379-3.173 2.065a17.189 17.189 0 00-3.803-1.578L35.372 0h-7.744l-.783 3.702c-1.324.37-2.6.899-3.804 1.578L19.87 3.215l-5.376 5.376 1.534 3.655c2.332.311 4.205 2.006 4.955 4.193l.357-.78A11.216 11.216 0 0131.5 9.145a11.23 11.23 0 0110.125 6.432l.36.766z" fill="#C40B0B"/><path d="M39.844 27.712l-4.28-1.071v-.487a7.136 7.136 0 003.049-5.831v-1.777c0-3.947-3.093-7.25-6.895-7.365a7.035 7.035 0 00-5.17 2.005 7.054 7.054 0 00-2.161 5.104v2.033a7.133 7.133 0 003.048 5.83v.488l-4.28 1.071a5.074 5.074 0 00-3.849 4.93v1.794l2.835-.63a11.444 11.444 0 015.982.271l4.652 1.488c.502 0 1.002.07 1.485.208l6.385 1.824h1.016l2.032-1.07V32.64a5.074 5.074 0 00-3.849-4.929z" fill="#C40B0B"/><path d="M63 26.42h-2.283l-3.404 1.79a5.046 5.046 0 00-1.21-.498l-4.281-1.071v-.487a7.136 7.136 0 003.049-5.831v-1.777c0-3.947-3.093-7.25-6.895-7.366a7.06 7.06 0 00-5.17 2.005 7.054 7.054 0 00-2.16 5.105v2.033a7.133 7.133 0 003.047 5.83v.488l-4.064 1.017.215.054a5.043 5.043 0 012.394 1.388l3.488-.871V25.01l-.507-.293a5.095 5.095 0 01-2.542-4.395V18.29c0-1.386.548-2.681 1.544-3.646a5.01 5.01 0 013.694-1.431c2.715.08 4.924 2.474 4.924 5.333v1.777a5.1 5.1 0 01-2.544 4.396l-.508.294.004 3.216 5.077 1.268L41.41 36.58h-.622l-6.248-1.786a6.387 6.387 0 00-1.507-.215l-4.6-1.47a12.55 12.55 0 00-6.51-.297l-5.785 1.285.082-.288.038-1.877-5.359-3.127 2.31-.577V25.01l-.506-.293a5.095 5.095 0 01-2.542-4.395V18.29c0-1.386.548-2.681 1.544-3.646a5.016 5.016 0 013.694-1.431c2.715.08 4.924 2.474 4.924 5.333v1.777a5.1 5.1 0 01-2.544 4.396l-.508.294.004 3.216 3.487.871a5.048 5.048 0 012.394-1.388l.215-.054-4.066-1.017v-.487a7.136 7.136 0 003.05-5.831v-1.777c0-3.947-3.093-7.25-6.895-7.366a7.058 7.058 0 00-5.17 2.005 7.054 7.054 0 00-2.161 5.105v2.033a7.133 7.133 0 003.048 5.83v.488l-2.792.698-5.061-2.952H0v21.055l9.997 3.332h1.947l.243-.851 3.064 1.839a3.164 3.164 0 003.05 3.065 3.163 3.163 0 003.05 3.049 3.163 3.163 0 003.047 3.048 3.17 3.17 0 003.16 3.06c.636 0 1.258-.198 1.782-.55l.9.794c.564.496 1.29.772 2.044.772h.188a3.094 3.094 0 003.088-3.052 3.09 3.09 0 003.049-3.049 3.09 3.09 0 003.048-3.051 3.125 3.125 0 003.037-3.423L63 41.273V26.42zm-60.968 0h.741l7.308 4.262L6.393 45.43l-4.36-1.454V26.419zm8.294 20.322l-2-.666 3.582-14.328 2.318 1.351v.29L10.41 46.743h-.085zm6.948 2.925c0-.3.121-.593.334-.806l1.786-1.786a1.14 1.14 0 011.611 1.611l-1.786 1.787a1.14 1.14 0 01-1.945-.806zm3.049 3.049c0-.3.12-.594.333-.806l1.786-1.786a1.14 1.14 0 011.611 1.611l-1.786 1.786a1.14 1.14 0 01-1.945-.806zm3.048 3.048c0-.3.121-.593.333-.806l1.787-1.786a1.14 1.14 0 011.612 1.612l-1.787 1.786a1.14 1.14 0 01-1.945-.806zm4.188 4.188a1.14 1.14 0 01-.806-1.945l1.786-1.787a1.14 1.14 0 011.612 1.611l-1.787 1.787a1.147 1.147 0 01-.806.334zm4.913 1.016h-.188c-.259 0-.507-.095-.7-.266l-.76-.67.763-.763a3.16 3.16 0 00.64-.944l.924.769a1.061 1.061 0 01-.679 1.874zm9.113-9.146h-.176a1.09 1.09 0 01-.699-.254l-5.51-4.591-1.302 1.561 5.351 4.459a1.06 1.06 0 01-.68 1.874h-.222a1.06 1.06 0 01-.677-.246l-5.52-4.6-1.301 1.563 5.35 4.459c.242.2.382.496.382.813a1.06 1.06 0 01-1.06 1.06c-.39 0-.77-.14-1.07-.388l-2.267-1.89a3.16 3.16 0 00-2.729-1.776 3.163 3.163 0 00-3.048-3.048 3.163 3.163 0 00-3.048-3.049 3.168 3.168 0 00-3.16-3.06 3.19 3.19 0 00-2.242.93l-1.786 1.786c-.107.106-.195.227-.285.347L12.765 45.9l2.736-9.576 6.86-1.526c1.8-.402 3.697-.315 5.452.247l1.497.479-5.075 2.537a3.387 3.387 0 00-1.88 3.044v.202a3.408 3.408 0 003.404 3.404c.617 0 1.224-.168 1.75-.486l3.785-2.27a2.098 2.098 0 012.436.236l8.586 7.726a1.093 1.093 0 01-.73 1.906zm19.383-11.805l-17.12 8.56a2.829 2.829 0 00-.174-.17l-8.584-7.726a4.093 4.093 0 00-4.843-.468l-3.785 2.27a1.372 1.372 0 01-2.075-1.177v-.201c0-.524.29-.993.758-1.227l5.668-2.834a4.417 4.417 0 013.167-.294l6.386 1.824 1.546.039 19.056-10.03v11.434z" fill="#02133C"/></svg>