<svg width="63" height="63" fill="none" xmlns="http://www.w3.org/2000/svg"><path d="M38.613 21.339h-.698A11.12 11.12 0 0131.5 23.37a11.12 11.12 0 01-6.415-2.032h-.698l-5.08 11.177h2.032c.56 0 1.016.455 1.016 1.016v12.194c0 2.801 2.28 5.08 5.08 5.08h8.13a5.086 5.086 0 005.08-5.08V33.532c0-.56.456-1.016 1.016-1.016h2.033l-5.08-11.177z" fill="#C40B0B"/><path d="M31.5 18.29c1.413 0 2.79-.493 3.879-1.392l-1.294-1.567a4.07 4.07 0 01-2.585.927 4.069 4.069 0 01-4.064-4.064A4.069 4.069 0 0131.5 8.129a4.069 4.069 0 013.538 6.066l1.768 1.002c.518-.912.79-1.95.79-3.003A6.103 6.103 0 0031.5 6.097a6.103 6.103 0 00-6.097 6.097A6.103 6.103 0 0031.5 18.29zm-20.323 2.033a5.086 5.086 0 00-5.08 5.08 5.085 5.085 0 005.08 5.08 5.085 5.085 0 005.081-5.08c0-2.801-2.28-5.08-5.08-5.08zm2.862 4.064h-1.845v-1.845c.86.307 1.538.984 1.845 1.845zm-3.878-1.845v1.845H8.316a3.046 3.046 0 011.845-1.845zm-1.845 3.877h1.845v1.846a3.046 3.046 0 01-1.845-1.846zm3.877 1.846v-1.846h1.846a3.045 3.045 0 01-1.845 1.846zm39.63-7.942a5.086 5.086 0 00-5.081 5.08c0 2.802 2.28 5.08 5.08 5.08a5.085 5.085 0 005.081-5.08 5.086 5.086 0 00-5.08-5.08zm2.861 4.064h-1.845v-1.845c.86.307 1.538.984 1.845 1.845zm-3.877-1.845v1.845H48.96a3.045 3.045 0 011.846-1.845zm-1.846 3.877h1.846v1.846a3.045 3.045 0 01-1.846-1.846zm3.878 1.846v-1.846h1.845a3.046 3.046 0 01-1.845 1.846zM31.5 31.5a5.086 5.086 0 00-5.08 5.08 5.085 5.085 0 005.08 5.081 5.086 5.086 0 005.08-5.08A5.086 5.086 0 0031.5 31.5zm0 8.129a3.052 3.052 0 01-3.049-3.048 3.052 3.052 0 013.049-3.049 3.052 3.052 0 013.048 3.049 3.052 3.052 0 01-3.048 3.048z" fill="#02133C"/><path d="M63 33.532C63 19.22 53.382 6.745 39.584 3.09A12.129 12.129 0 0031.5 0a12.13 12.13 0 00-8.084 3.09C9.618 6.745 0 19.22 0 33.532v1.016h2.058C2.596 50.327 15.592 63 31.5 63c15.907 0 28.904-12.673 29.442-28.452H63v-1.016zm-31.5-31.5c5.603 0 10.161 4.559 10.161 10.162 0 5.603-4.558 10.16-10.161 10.16s-10.161-4.557-10.161-10.16S25.897 2.031 31.5 2.031zM21.01 6.008a12.1 12.1 0 00-1.704 6.186c0 3.416 1.417 6.504 3.688 8.72L17.64 32.516H2.05c.406-11.93 7.956-22.326 18.96-26.508zm10.49 54.96c-14.787 0-26.873-11.76-27.41-26.42h14.85l5.677-12.299a12.12 12.12 0 006.883 2.138 12.12 12.12 0 006.883-2.138l5.676 12.3h10.812v-2.033H45.36l-5.354-11.602a12.153 12.153 0 003.688-8.72 12.1 12.1 0 00-1.704-6.186c11.004 4.182 18.554 14.579 18.96 26.508h-4.047v2.032h2.007c-.537 14.66-12.623 26.42-27.41 26.42z" fill="#02133C"/></svg>