<svg width="76" height="76" fill="none" xmlns="http://www.w3.org/2000/svg"><g clip-path="url(#clip0)" fill="#fff"><path d="M17.167 56.39h2.452v2.45h-2.452v-2.45z"/><path d="M71 9.19L48.738.282c-2.164-.803-4.435.28-5.228 2.274l-1.556 3.88a4.2 4.2 0 00-.273 1.466c0 .808.252 1.591.696 2.253l-3.584 8.239H37.21l-3.58-8.235a4.054 4.054 0 00.698-2.257c0-.485-.093-.98-.285-1.499L32.5 2.557c-.796-2-2.965-3.123-5.259-2.266L5.01 9.19a4.025 4.025 0 00-2.551 3.761c0 .485.092.98.284 1.5l1.544 3.844a4.015 4.015 0 003.487 2.53l11.201 25.759h-3.034a3.682 3.682 0 00-3.677 3.677c0 .994.389 1.918 1.072 2.583.228.235.489.419.763.58a6.324 6.324 0 00-1.646 5.792L16.184 76h38.72l5.321-22.175a9.746 9.746 0 008.42-9.693c0-4.2-2.68-7.877-6.528-9.233l6.116-14.074a4.018 4.018 0 003.489-2.527l1.554-3.878c.18-.49.273-.982.273-1.469A4.024 4.024 0 0071 9.191zm-28.633 7.136l3.74 1.578.953-2.259-3.715-1.568 1.028-2.359L65.79 20.29l-1.19 2.745-15.261-6.423-.95 2.26 15.234 6.41-1.204 2.77-14.626-6.154c-.092-1.946-1.691-3.505-3.66-3.505h-2.664l.9-2.067zm-12.92 32.279a7.352 7.352 0 016.105-3.247 7.351 7.351 0 016.105 3.247 7.306 7.306 0 011.25 4.107 7.304 7.304 0 01-1.25 4.108 7.35 7.35 0 01-6.105 3.246 7.361 7.361 0 01-6.105-11.461zm2.428-5.698a3.632 3.632 0 01-3.319-2.112c-.053-.11-.077-.227-.119-.34h14.241a3.652 3.652 0 01-3.447 2.452h-7.356zm-13-2.7l4.72-1.981a3.682 3.682 0 002.249 2.034c.023.133.045.268.077.399l-5.788 2.44-1.257-2.891zm25.257-19.363c.676 0 1.226.551 1.226 1.226v6.128H34.327a3.682 3.682 0 00-3.677 3.678c0 .994.388 1.918 1.07 2.583a3.607 3.607 0 002.607 1.094h11.03v1.225c0 .676-.55 1.226-1.225 1.226h-17.16c-.675 0-1.225-.55-1.225-1.226v-6.202c0-.573.13-1.134.385-1.634l3.026-6.064a3.72 3.72 0 013.294-2.034h11.68zm5.223 25.74h-6.164a9.767 9.767 0 00-1.7-1.659 6.073 6.073 0 003.534-3.736l4.092 1.721a9.374 9.374 0 00.238 3.673zM45.358 33.1H34.327c-.328 0-.63-.125-.873-.374a1.174 1.174 0 01-.353-.851c0-.675.55-1.226 1.226-1.226h11.03V33.1zm-21.414-5.26a5.998 5.998 0 00-.608 2.054l-7.564 3.176-1.204-2.768 10.315-4.343-.94 1.881zm-.649 4.729v3.127L17.9 37.962l-1.15-2.645 6.546-2.749zM44.62 49.035h5.747a9.726 9.726 0 002.127 2.546l-1.85 4.808H44.62a9.757 9.757 0 00.738-3.677 9.76 9.76 0 00-.738-3.677zm5.128-8.518l-2.938-1.236a3.655 3.655 0 001-2.503v-.493l3.58 1.51a9.706 9.706 0 00-1.642 2.722zm3.684-4.522l-5.623-2.371v-3.126l9.413 3.961c-1.367.225-2.64.764-3.79 1.536zm6.806-2.925l-12.429-5.232v-3.272l13.632 5.736-1.203 2.767zM32.452 18.392a6.191 6.191 0 00-5.487 3.39l-.402.807-12.972 5.461-1.204-2.767 21.254-8.958.9 2.067h-2.09zm-25.89-1.009L5.03 13.566a1.798 1.798 0 01-.12-.615c0-.66.395-1.242 1.008-1.485l22.204-8.887c.94-.348 1.787.097 2.1.89l1.533 3.817c.078.21.12.424.12.615 0 .445-.179.86-.512 1.17a1.609 1.609 0 01-.493.315l-3.137 1.25.906 2.277 2.999-1.194 1.031 2.373-21.26 8.945-1.193-2.744 15.986-6.4-.911-2.274-16.643 6.66c-.096.038-.2.066-.247.078-.772.106-1.552-.25-1.838-.973zM21.11 45.35l5.86-2.472a6.007 6.007 0 002.649 2.044 9.78 9.78 0 00-1.705 1.663h-6.267l-.537-1.235zm31.86 28.2H18.15l-3.306-14.868a3.903 3.903 0 013.805-4.743c1.581 0 2.993.94 3.6 2.396l5.132 12.312h7.171c.508 1.423 1.856 2.452 3.452 2.452a3.681 3.681 0 003.677-3.677c0-.153-.027-.298-.046-.445l4.271-2.135-1.097-2.193-4.26 2.13a3.656 3.656 0 00-2.545-1.035c-1.596 0-2.944 1.029-3.452 2.452h-5.537L24.513 55.39a6.331 6.331 0 00-5.863-3.904h-2.709c-.327 0-.629-.126-.872-.375a1.174 1.174 0 01-.353-.851c0-.675.55-1.226 1.225-1.226h10.544a9.77 9.77 0 00-.738 3.677c0 5.407 4.399 9.806 9.805 9.806a9.784 9.784 0 007.639-3.677h9.137l5.89-15.317a.955.955 0 01.892-.617.96.96 0 01.93 1.184l-7.07 29.46zm-16.191-6.13c0-.674.55-1.225 1.226-1.225.675 0 1.225.55 1.225 1.226 0 .675-.55 1.225-1.225 1.225s-1.226-.55-1.226-1.225zm29.417-23.288c0 3.37-2.242 6.2-5.34 7.062l1.57-6.543a3.411 3.411 0 00-3.315-4.195 3.4 3.4 0 00-3.18 2.183l-2.486 6.469a7.29 7.29 0 01-1.254-1.822 7.327 7.327 0 01-.492-4.881 7.254 7.254 0 012.62-4.064 7.22 7.22 0 014.522-1.563c.5 0 .95.045 1.4.138a7.353 7.353 0 015.955 7.217zm4.795-30.595l-1.546 3.852a1.588 1.588 0 01-1.484 1.004c-.115 0-.24-.021-.288-.026a2.013 2.013 0 01-.298-.082L45.146 9.39a1.636 1.636 0 01-.502-.317l-.005-.006a1.576 1.576 0 01-.507-1.165c0-.19.042-.405.108-.586l1.546-3.852A1.588 1.588 0 0147.27 2.46c.19 0 .405.042.587.108l22.237 8.9a1.586 1.586 0 011.003 1.484c0 .191-.042.405-.107.586z"/><path d="M38.003 52.712c0 .358-.08.702-.249 1.056l2.215 1.051c.323-.68.486-1.388.486-2.107a4.908 4.908 0 00-4.903-4.903c-.72 0-1.428.163-2.107.486l1.052 2.214c1.686-.803 3.506.493 3.506 2.203zm-2.451 4.902a4.88 4.88 0 002.107-.485l-1.052-2.215c-1.687.802-3.507-.494-3.507-2.202 0-.358.081-.702.25-1.056l-2.216-1.051a4.877 4.877 0 00-.485 2.107 4.908 4.908 0 004.903 4.902zm4.903-34.319h2.451v2.452h-2.451v-2.452zm-4.903 0h2.452v2.452h-2.452v-2.452zm-4.902 0h2.45v2.452h-2.45v-2.452z"/></g><defs><clipPath id="clip0"><path fill="#fff" d="M0 0h76v76H0z"/></clipPath></defs></svg>