<svg width="63" height="63" fill="none" xmlns="http://www.w3.org/2000/svg"><g clip-path="url(#clip0)"><path d="M62.303 13.503c.59.724.82 1.664.632 2.579l-4.328 21a3.103 3.103 0 01-3.028 2.47H17.324l.91 4.42h37.057a1.546 1.546 0 110 3.094H18.235a3.105 3.105 0 01-3.03-2.469L7.72 8.266.93 5.317A1.546 1.546 0 112.162 2.48l6.791 2.947a3.098 3.098 0 011.798 2.214l.973 4.724h48.182a3.08 3.08 0 012.398 1.138zM55.579 36.46l4.326-21H12.36l4.326 21H55.58z" fill="#02133C"/><path d="M59.905 15.458l-4.326 21H16.686l-4.326-21h47.545zm-11.144 6.484c0-.854-.692-1.547-1.547-1.547H25.048a1.546 1.546 0 100 3.094h22.166c.855 0 1.547-.693 1.547-1.547zm-1.207 8.033c0-.854-.691-1.547-1.547-1.547H26.256a1.546 1.546 0 100 3.093h19.753c.855 0 1.546-.693 1.546-1.546z" fill="#C40B0B"/><path d="M45.85 49.567a5.546 5.546 0 015.54 5.54 5.546 5.546 0 01-5.54 5.541 5.547 5.547 0 01-5.54-5.54 5.547 5.547 0 015.54-5.541zm1.364-29.171a1.546 1.546 0 110 3.093H25.05a1.546 1.546 0 110-3.093h22.165zm-1.206 8.032a1.546 1.546 0 110 3.094H26.256a1.546 1.546 0 110-3.094h19.752zM26.416 49.566a5.547 5.547 0 015.541 5.541 5.547 5.547 0 01-5.54 5.54 5.547 5.547 0 01-5.541-5.54 5.547 5.547 0 015.54-5.54z" fill="#02133C"/></g><defs><clipPath id="clip0"><path fill="#fff" d="M0 0h63v63H0z"/></clipPath></defs></svg>