<svg width="76" height="76" fill="none" xmlns="http://www.w3.org/2000/svg"><path d="M64.968 31.871h-23.29v-2.452h1.92l6.07-10.117a12.754 12.754 0 001.816-6.557C51.484 5.717 45.767 0 38.739 0h-1.477c-7.029 0-12.746 5.717-12.746 12.745 0 2.309.63 4.577 1.816 6.558l6.071 10.116h1.92v2.452h-23.29a3.682 3.682 0 00-3.678 3.677v36.775A3.682 3.682 0 0011.032 76h53.936a3.682 3.682 0 003.677-3.677V35.548a3.682 3.682 0 00-3.677-3.677zM44.129 73.548h-4.903V61.29h7.355v-7.355h4.903V44.13h-9.806v-4.903H61.29v12.258h-4.904v7.355h-4.903v7.355h-7.355v7.354zm4.903-60.803c0 .822-.115 1.634-.307 2.426-4.2-1.627-7.047-5.692-7.047-10.268V2.884c4.247 1.27 7.354 5.206 7.354 9.86zm-14.71-9.86v2.018c0 4.576-2.847 8.64-7.047 10.268a10.289 10.289 0 01-.307-2.426c0-4.655 3.108-8.592 7.355-9.86zM28.435 18.04c-.112-.186-.195-.385-.294-.576 5.145-1.986 8.634-6.96 8.634-12.562V2.476c.163-.007.323-.024.487-.024h1.477c.165 0 .325.017.488.024v2.427c0 5.602 3.489 10.576 8.635 12.561-.1.191-.183.39-.294.576l-5.357 8.928h-8.418l-5.358-8.927zm10.791 11.38v14.71h-2.452V29.42h2.452zm-4.903 14.71h-4.904v-4.903h4.904v4.903zM9.807 72.323V35.548c0-.675.55-1.225 1.225-1.225h23.29v2.451h-7.354v9.807h22.064v4.903H44.13v7.355h-7.355v14.71H11.032c-.676 0-1.225-.55-1.225-1.226zm56.387 0c0 .676-.55 1.225-1.226 1.225H46.58v-4.903h7.355V61.29h4.903v-7.355h4.903v-17.16H41.678v-2.452h23.29c.676 0 1.226.55 1.226 1.225v36.775z" fill="#fff"/><path d="M12.258 46.58h12.258v-9.806H12.258v9.807zm2.452-7.354h7.354v4.903H14.71v-4.903zm-2.452 31.871h9.806V49.032h-9.806v22.065zm2.452-2.452v-2.451h4.903v2.451H14.71zm4.903-7.355v2.452H14.71V61.29h4.903zm-4.903-2.45v-2.452h4.903v2.452H14.71zm4.903-7.355v2.451H14.71v-2.451h4.903z" fill="#fff"/></svg>