<svg width="40" height="41" fill="none" xmlns="http://www.w3.org/2000/svg"><path d="M38.101 12.383a20.145 20.145 0 00-2.93-4.868 19.945 19.945 0 00-6.482-5.354 19.335 19.335 0 00-8.04-2.143c-2.796-.12-5.585.37-8.184 1.443a19.796 19.796 0 00-6.894 4.775 20.563 20.563 0 00-4.393 7.271 21.058 21.058 0 00-1.122 8.49 20.94 20.94 0 002.347 8.219 20.292 20.292 0 005.403 6.506 19.036 19.036 0 004.688 2.766c2.357.997 4.88 1.51 7.428 1.512 5.258-.012 10.297-2.175 14.012-6.015 3.716-3.84 5.804-9.043 5.808-14.469a20.797 20.797 0 00-1.64-8.133zM19.907 4.174c2.287 0 4.547.516 6.621 1.512a6.28 6.28 0 01-1.582.469 8.302 8.302 0 00-4.733 2.447 8.767 8.767 0 00-2.372 4.884 4.592 4.592 0 01-1.294 2.732 4.336 4.336 0 01-2.676 1.274 8.302 8.302 0 00-4.733 2.448 8.767 8.767 0 00-2.372 4.884 4.464 4.464 0 01-1.157 2.63 16.778 16.778 0 01-1.49-7.985 16.69 16.69 0 012.426-7.737 16.037 16.037 0 015.743-5.569 15.438 15.438 0 017.634-2.02l-.015.031zM7.792 31.098c.176-.166.351-.317.527-.499a8.383 8.383 0 002.373-4.883 4.472 4.472 0 011.275-2.751 4.095 4.095 0 012.651-1.3 8.301 8.301 0 004.733-2.448 8.767 8.767 0 002.372-4.884 4.477 4.477 0 011.275-2.887 4.148 4.148 0 012.68-1.255 7.928 7.928 0 004.395-2.162 15.77 15.77 0 013.458 4.203c-.056.077-.12.148-.19.211a4.155 4.155 0 01-2.652 1.33 8.272 8.272 0 00-4.738 2.443 8.737 8.737 0 00-2.367 4.89 4.596 4.596 0 01-1.27 2.75 4.34 4.34 0 01-2.67 1.301 8.343 8.343 0 00-4.753 2.444 8.81 8.81 0 00-2.397 4.888 4.845 4.845 0 01-.717 2.071 16.086 16.086 0 01-3.985-3.462zm12.115 5.835a15.42 15.42 0 01-4.395-.635c.489-.94.807-1.965.938-3.023a4.596 4.596 0 011.264-2.746 4.34 4.34 0 012.662-1.305 8.3 8.3 0 004.741-2.444 8.766 8.766 0 002.378-4.888 4.597 4.597 0 011.265-2.747 4.341 4.341 0 012.661-1.305 8.216 8.216 0 003.75-1.512c.618 2.416.691 4.946.214 7.395a16.607 16.607 0 01-2.965 6.735 15.969 15.969 0 01-5.537 4.699 15.452 15.452 0 01-6.976 1.7v.076z" fill="#C40B0B"/></svg>